<?xml version="1.0" standalone="no"?>
<!DOCTYPE svg PUBLIC "-//W3C//DTD SVG 20010904//EN"
 "http://www.w3.org/TR/2001/REC-SVG-20010904/DTD/svg10.dtd">
<svg version="1.0" xmlns="http://www.w3.org/2000/svg"
 width="1280.000000pt" height="1000.000000pt" viewBox="0 0 1280.000000 1000.000000"
 preserveAspectRatio="xMidYMid meet">
<g transform="translate(0.000000,1000.000000) scale(0.100000,-0.100000)"
fill="#000000" stroke="none">
<path d="M6225 9994 c-16 -2 -122 -8 -235 -14 -844 -46 -1593 -186 -2306 -431
-1526 -525 -2712 -1467 -3284 -2609 -244 -487 -366 -960 -397 -1530 -6 -127
23 -389 66 -585 186 -841 833 -1763 1811 -2582 331 -276 636 -492 1015 -718
127 -75 259 -159 295 -185 134 -99 230 -226 230 -305 0 -96 -56 -180 -276
-405 -142 -147 -177 -190 -208 -250 -60 -121 -45 -212 44 -264 30 -18 51 -21
145 -20 158 1 297 35 925 224 744 224 1153 325 1542 380 132 19 163 20 305 11
341 -23 925 -12 1333 24 2212 198 4169 1277 5052 2785 276 470 433 948 493
1500 34 307 32 391 -16 770 -199 1569 -1509 2970 -3455 3693 -626 233 -1314
391 -2016 462 -348 35 -926 62 -1063 49z"/>
</g>
</svg>
